<svg version="1.1" id="Layer_1" xmlns="http://www.w3.org/2000/svg" xmlns:xlink="http://www.w3.org/1999/xlink" x="0px" y="0px"
	 width="100%" viewBox="0 0 496 288" enable-background="new 0 0 496 288" xml:space="preserve">
<path fill="#000000" opacity="1.000000" stroke="none" 
	d="
M369.000000,289.000000 
	C246.000015,289.000000 123.500046,289.000000 1.000049,289.000000 
	C1.000033,193.000046 1.000033,97.000076 1.000016,1.000088 
	C166.333267,1.000059 331.666534,1.000059 496.999817,1.000029 
	C496.999878,96.999916 496.999878,192.999832 496.999939,288.999878 
	C454.500000,289.000000 412.000000,289.000000 369.000000,289.000000 
M272.417908,45.227425 
	C264.539490,41.827774 257.306763,37.449684 251.406387,31.121756 
	C249.148438,28.700180 247.068024,27.737976 244.288055,30.538397 
	C229.112289,45.825851 209.633087,51.592937 189.227524,55.411297 
	C167.792465,59.422302 146.035568,57.630787 124.468918,59.264263 
	C110.924210,60.290146 97.631882,62.401016 85.157814,67.861076 
	C70.484573,74.283745 57.678764,83.007072 51.570698,98.829109 
	C50.679565,101.137466 48.963844,101.953751 46.684383,102.505211 
	C34.689270,105.407143 26.340487,112.769539 21.261435,123.903877 
	C17.019712,133.202621 15.455901,143.037277 16.422739,153.151123 
	C18.311163,172.905426 29.001844,189.572296 47.587925,193.985001 
	C49.376659,194.409683 50.846947,195.194443 51.684242,197.197021 
	C57.711998,211.613708 69.277565,220.315292 82.874466,226.709198 
	C101.209396,235.331100 120.866081,237.127335 140.786026,237.840118 
	C159.399261,238.506165 178.073654,238.790390 196.420319,242.685837 
	C214.679504,246.562714 232.424362,251.505539 245.691254,265.951752 
	C248.133804,268.611420 250.096542,267.150665 251.971222,265.156036 
	C256.701050,260.123566 262.216888,256.130524 268.323456,252.957581 
	C285.626678,243.966965 304.307678,240.394928 323.523010,238.576523 
	C340.306458,236.988235 357.169525,238.438522 373.941132,236.689377 
	C387.760590,235.248138 401.365143,233.021042 413.948700,226.819977 
	C427.224731,220.277649 438.854858,211.891098 444.363312,197.297729 
	C445.318390,194.767441 447.279327,193.996277 449.693939,193.421616 
	C459.414124,191.108231 466.819244,185.533356 472.086243,177.069901 
	C478.696930,166.447266 480.619568,154.729034 479.555359,142.530899 
	C477.753906,121.882912 465.997162,106.025520 448.709747,102.055130 
	C446.254303,101.491180 444.706512,100.097008 443.804688,97.635506 
	C440.961761,89.875969 435.572632,83.988655 429.234283,78.962265 
	C417.207520,69.424927 403.258148,64.182884 388.347656,61.334633 
	C370.601715,57.944759 352.597565,57.871040 334.621613,57.244240 
	C313.555054,56.509678 292.829559,53.601002 272.417908,45.227425 
M110.466858,243.787079 
	C120.811195,245.719833 131.285172,246.268616 141.768738,246.639099 
	C163.394623,247.403336 185.059296,247.847641 206.113770,253.698624 
	C212.101456,255.362579 217.980515,257.417480 223.909378,259.293091 
	C223.285156,258.096893 222.432495,257.350586 221.476654,256.775909 
	C210.968887,250.458099 199.185654,248.226425 187.337311,246.331345 
	C167.713638,243.192627 147.821594,243.889954 128.074722,242.435562 
	C108.424759,240.988342 89.550049,237.019669 71.968994,227.815857 
	C70.314064,226.949478 68.724731,225.656967 66.533218,226.245850 
	C79.091614,236.465958 93.902214,241.156342 110.466858,243.787079 
M358.225861,49.415173 
	C330.737701,49.303436 303.472260,47.233459 276.797485,39.732929 
	C284.827942,44.713127 293.632019,47.023968 302.629181,48.696651 
	C324.180908,52.703392 346.094727,52.024891 367.832062,53.634510 
	C386.929352,55.048634 405.450714,58.592442 422.606201,67.585243 
	C424.725830,68.696327 426.918701,69.667740 429.077606,70.703880 
	C429.281647,70.307121 429.485718,69.910362 429.689758,69.513603 
	C425.398285,65.411217 420.125366,62.771694 414.720734,60.380634 
	C397.032837,52.555344 378.183228,50.564316 358.225861,49.415173 
M455.862000,196.008438 
	C455.022217,196.421814 453.808746,196.328262 453.588348,197.966202 
	C456.263763,200.972000 458.900391,198.717133 461.427917,197.566025 
	C472.212006,192.654663 478.597626,184.067505 481.997375,173.001129 
	C476.030884,183.458252 467.843658,191.365265 455.862000,196.008438 
M34.094784,98.729942 
	C25.647665,102.886711 19.406721,109.072067 16.295990,118.188126 
	C23.142483,109.528145 31.433426,102.720612 42.773766,98.833961 
	C39.050117,95.763512 36.924255,97.642281 34.094784,98.729942 
M458.157898,99.469666 
	C459.919983,100.065536 461.523926,101.464279 464.056763,100.488976 
	C461.213776,97.860649 458.724304,95.524147 454.383545,96.660767 
	C455.274353,98.765213 456.640472,98.626869 458.157898,99.469666 
M484.356293,164.194763 
	C484.138489,165.337906 483.920685,166.481033 483.702881,167.624176 
	C486.639221,161.760208 487.012970,155.594055 486.547119,149.320358 
	C486.588593,154.139938 485.649567,158.820465 484.356293,164.194763 
z"/>
<path fill="#000000" opacity="1.000000" stroke="none" 
	d="
M239.653763,178.149963 
	C238.996017,182.985870 243.115158,184.349152 246.210403,187.634399 
	C239.412567,188.637543 233.628784,188.602768 227.388367,187.241837 
	C234.983200,182.730713 232.417633,175.680954 232.540588,169.531586 
	C232.665741,163.272354 234.472443,156.284836 227.084030,152.663666 
	C227.833298,150.799332 229.037521,150.655533 230.195877,150.728210 
	C236.476746,151.122360 242.867859,149.674789 249.043945,151.658585 
	C255.654358,153.781891 258.445282,161.178360 254.081345,166.403107 
	C251.267548,169.771896 251.109238,172.323654 253.505371,175.583191 
	C253.979279,176.227859 254.149139,177.103287 254.426315,177.883972 
	C255.480591,180.853195 255.759918,184.785065 260.949982,181.959320 
	C261.323517,186.646332 259.028809,188.238754 255.890579,188.881271 
	C252.693787,189.535797 250.290329,188.125839 249.151352,185.105164 
	C248.217453,182.628387 247.717331,179.991531 246.925385,177.456726 
	C246.219116,175.196152 245.329132,172.609177 242.539719,172.726212 
	C239.549255,172.851669 240.164627,175.801559 239.653763,178.149963 
M246.807846,156.606567 
	C244.966278,154.960770 242.669922,154.260590 241.094330,156.322540 
	C238.785187,159.344513 239.097458,162.971664 240.764862,166.255814 
	C241.665756,168.030212 243.625061,168.007599 245.180573,167.148300 
	C248.452621,165.340820 249.062073,162.393036 248.109360,158.994080 
	C247.932449,158.362976 247.556763,157.787582 246.807846,156.606567 
z"/>
<path fill="#000000" opacity="1.000000" stroke="none" 
	d="
M198.578125,130.078644 
	C198.710388,124.508873 198.828522,119.345551 198.791748,114.183334 
	C198.756058,109.174164 200.267517,103.599533 193.490036,100.994049 
	C198.383591,98.167610 203.049011,98.731827 206.184875,102.284668 
	C210.593918,107.279991 214.793884,112.459305 219.153137,117.499504 
	C220.295273,118.820068 221.117249,120.681961 223.278290,120.734070 
	C226.329697,115.254166 225.111343,105.921432 220.071838,100.035378 
	C224.914307,99.376015 229.143677,98.763710 234.395584,99.930809 
	C225.803894,108.337334 230.180893,118.321999 228.967194,127.385941 
	C228.549728,130.503754 230.618881,135.092834 226.978470,136.327881 
	C223.702026,137.439453 222.278214,132.821548 220.249283,130.580582 
	C216.114029,126.013191 212.253998,121.197357 208.244873,116.514450 
	C207.391739,115.517937 206.473923,114.324425 204.910080,114.846596 
	C203.348450,115.368034 203.288452,116.841103 203.271515,118.172523 
	C203.227020,121.670319 203.387177,125.174904 203.227020,128.665833 
	C203.076141,131.954330 205.770203,133.018890 208.879990,135.487778 
	C203.261200,136.776108 198.890503,136.664566 194.138626,135.796539 
	C195.111771,133.010452 198.123810,132.876770 198.578125,130.078644 
z"/>
<path fill="#000000" opacity="1.000000" stroke="none" 
	d="
M276.310303,116.292053 
	C276.373993,130.481430 269.270081,137.261887 255.483459,136.583801 
	C251.986618,136.411804 248.502625,136.215637 245.015137,136.764908 
	C243.216171,137.048264 241.431763,137.029724 240.040298,135.479385 
	C247.076630,127.938759 246.888901,107.483253 239.896881,100.773132 
	C239.998901,99.453064 241.110703,98.985710 242.005402,99.170921 
	C247.473602,100.302925 252.928604,98.571785 258.425812,99.362991 
	C268.818817,100.858849 274.148621,105.585434 276.310303,116.292053 
M253.148880,104.913391 
	C251.513397,112.789879 252.434402,120.743362 252.586578,128.657547 
	C252.636887,131.273773 254.664810,132.583466 257.409485,132.665771 
	C261.784668,132.797012 264.692566,130.619675 266.461395,126.892426 
	C269.180725,121.162308 269.055756,115.275902 266.472107,109.562454 
	C264.200012,104.538063 259.171997,102.624992 253.148880,104.913391 
z"/>
<path fill="#000000" opacity="1.000000" stroke="none" 
	d="
M327.853241,188.388367 
	C320.041718,188.624924 313.552887,186.685486 310.529541,179.384247 
	C307.245728,171.453873 307.054993,163.200500 312.740875,156.206451 
	C317.730682,150.068680 324.737274,148.812805 332.281647,150.711258 
	C340.747467,152.841599 346.027710,161.052277 345.240723,170.725082 
	C344.391968,181.157211 338.330933,187.479935 327.853241,188.388367 
M316.562531,166.144745 
	C316.063751,170.347427 316.419861,174.484879 317.968903,178.419052 
	C319.323151,181.858582 321.614380,184.361877 325.622345,184.694443 
	C329.807922,185.041733 332.576111,183.009033 334.532928,179.524612 
	C337.487244,174.264008 337.267029,168.585526 336.348816,162.972076 
	C335.449860,157.476456 331.672791,153.776901 327.435852,153.474182 
	C323.250244,153.175140 319.404633,156.478561 317.625214,161.951370 
	C317.265778,163.056839 317.039185,164.205521 316.562531,166.144745 
z"/>
<path fill="#000000" opacity="1.000000" stroke="none" 
	d="
M113.750122,175.621170 
	C113.716743,172.165543 113.816673,169.162415 113.671432,166.171188 
	C113.425224,161.100433 115.679764,155.135345 108.194138,152.209320 
	C114.553329,150.522690 120.159294,150.474579 126.967247,151.565781 
	C117.896797,159.023926 121.620247,168.137131 121.570793,176.397446 
	C121.541382,181.308838 125.743820,184.599106 130.061768,184.543076 
	C134.828491,184.481216 139.016861,181.009247 139.420197,175.839722 
	C139.872147,170.046875 139.530533,164.193253 139.565552,158.366272 
	C139.583405,155.394531 136.502655,154.665192 135.311737,152.582123 
	C138.149536,150.396011 144.084122,150.162277 148.633591,152.335770 
	C142.511261,155.934784 144.194916,161.729843 144.012939,167.033432 
	C143.927307,169.529312 143.979828,172.036865 143.755768,174.519821 
	C142.854630,184.505798 139.087677,188.321426 129.911514,188.693573 
	C119.453087,189.117722 115.730560,186.208008 113.750122,175.621170 
z"/>
<path fill="#000000" opacity="1.000000" stroke="none" 
	d="
M268.993408,177.365601 
	C268.830322,172.945404 268.713928,168.957428 268.695862,164.969009 
	C268.673798,160.090469 269.695801,154.859818 263.256775,152.059128 
	C269.587006,150.667252 275.196350,150.458405 281.437897,151.538208 
	C272.750702,160.011810 276.371368,169.671921 277.206940,178.619110 
	C277.606903,182.901978 281.806305,185.011963 286.357910,184.457947 
	C291.066803,183.884781 294.112274,180.971924 294.453674,176.328049 
	C294.891510,170.373108 294.486816,164.360992 294.648163,158.378983 
	C294.730713,155.317673 291.745850,154.595810 290.182068,151.873917 
	C294.666016,150.244492 298.806549,151.180893 303.415375,151.535995 
	C296.995453,156.552261 298.778992,163.057266 298.879395,169.171158 
	C298.895782,170.168442 298.902832,171.168320 298.852814,172.163910 
	C298.163788,185.878159 291.822418,190.821060 278.273651,188.202194 
	C272.547577,187.095398 269.933533,183.221008 268.993408,177.365601 
z"/>
<path fill="#000000" opacity="1.000000" stroke="none" 
	d="
M376.491333,187.998642 
	C362.563141,189.427048 354.343018,188.358475 355.612122,169.565720 
	C355.735077,167.744614 355.535248,165.903320 355.621887,164.077866 
	C355.842255,159.434875 355.616516,155.018738 350.372864,152.867966 
	C353.328400,150.362396 363.991302,150.102707 367.515900,152.175110 
	C358.833954,160.001511 362.352203,169.722946 363.742432,178.885498 
	C364.299316,182.555542 367.738831,184.588455 371.644836,184.525421 
	C375.565765,184.462173 378.913361,182.945847 380.276764,178.961807 
	C382.656494,172.007996 381.646881,164.833557 381.226105,157.723618 
	C381.072998,155.136200 378.098877,154.456390 376.835693,151.642303 
	C381.365204,150.694183 385.482178,150.507172 390.251709,152.146835 
	C384.195557,155.375626 385.449158,160.702942 385.370087,165.594345 
	C385.316345,168.920776 385.481842,172.257950 385.273804,175.573044 
	C384.915833,181.277756 382.794708,185.905563 376.491333,187.998642 
z"/>
<path fill="#000000" opacity="1.000000" stroke="none" 
	d="
M153.396301,132.363678 
	C158.224930,125.820038 159.761154,118.168465 162.955872,111.254189 
	C164.991699,106.848022 165.736801,101.772682 169.715805,97.428871 
	C178.044357,109.492241 178.287994,124.905365 189.312698,135.895477 
	C183.229980,136.542160 177.908890,136.790726 172.166748,135.973862 
	C175.689117,130.962479 175.765808,127.124763 172.775558,124.850334 
	C170.288193,122.958427 163.953552,123.250740 161.950409,125.349884 
	C159.309128,128.117752 159.701599,131.081116 163.772491,135.901413 
	C159.214645,136.926727 155.067856,136.166443 151.106522,136.307938 
	C150.008362,133.590958 152.260132,133.568420 153.396301,132.363678 
M170.662003,116.418709 
	C170.089645,114.783913 170.015533,112.831635 167.713257,112.008575 
	C165.613602,113.452324 164.523651,115.541771 164.780045,118.088852 
	C164.934143,119.619766 166.454559,119.910583 167.832870,119.945168 
	C169.790070,119.994278 171.009674,119.278656 170.662003,116.418709 
z"/>
<path fill="#000000" opacity="1.000000" stroke="none" 
	d="
M160.655823,168.359344 
	C156.432785,165.014236 155.628311,160.832047 157.212784,156.454056 
	C158.741608,152.229813 162.531067,150.732086 166.812424,150.546173 
	C168.634140,150.467056 170.473251,150.461227 172.288315,150.613968 
	C179.756104,151.242401 181.081360,153.624268 178.235504,161.255615 
	C175.897186,161.394608 175.891373,159.317154 175.220688,157.962875 
	C173.866776,155.229065 171.621841,154.198166 168.708099,154.244873 
	C166.589203,154.278854 164.621475,154.741425 163.761475,156.897202 
	C162.834671,159.220474 163.743744,161.336060 165.633469,162.620453 
	C168.094635,164.293198 170.864853,165.507751 173.484070,166.952103 
	C179.737747,170.400681 182.298294,175.688797 180.452164,181.290131 
	C178.656006,186.739853 173.248703,189.589462 166.258835,188.683105 
	C163.160507,188.281342 160.110779,187.446808 156.638123,188.036758 
	C155.577866,183.819901 155.670761,179.909393 156.459106,176.082031 
	C159.230789,175.534988 159.247131,177.461395 159.806656,178.702316 
	C160.784637,180.871353 161.903381,182.963913 164.140350,183.997223 
	C167.466217,185.533539 170.801498,185.518372 173.113815,182.322281 
	C175.523972,178.990921 173.734131,176.137009 170.944412,174.215866 
	C167.810699,172.057846 164.308929,170.434296 160.655823,168.359344 
z"/>
<path fill="#000000" opacity="1.000000" stroke="none" 
	d="
M208.388245,179.402527 
	C207.837952,183.786911 212.096909,184.421265 214.083466,187.717438 
	C207.735641,188.588440 202.068832,188.703522 195.668274,187.699158 
	C204.863129,178.539658 200.021805,167.876953 200.772690,158.083191 
	C200.913330,156.248947 199.501328,155.008469 197.605255,154.821640 
	C195.302841,154.594788 193.348068,155.287857 192.069717,157.398514 
	C191.251495,158.749512 191.361877,160.771866 189.024750,161.354141 
	C186.621399,158.936996 187.470184,155.815460 188.086914,153.189880 
	C188.760071,150.324036 191.773895,150.851532 194.013931,150.823288 
	C201.169632,150.733032 208.328094,150.707031 215.483612,150.800156 
	C222.423859,150.890457 224.260529,154.567093 220.809509,161.259720 
	C218.507889,161.323120 218.440002,159.279648 217.751465,157.903366 
	C216.494476,155.390869 214.376404,154.809372 211.891235,155.231232 
	C209.282990,155.673981 208.432831,157.634384 208.413696,159.997330 
	C208.362503,166.321564 208.384445,172.646378 208.388245,179.402527 
z"/>
<path fill="#000000" opacity="1.000000" stroke="none" 
	d="
M402.375244,182.640411 
	C404.005951,184.209427 405.678101,184.959793 407.553253,185.058990 
	C410.420166,185.210602 412.907593,184.292114 414.150665,181.536041 
	C415.343903,178.890533 414.186401,176.662033 412.238312,174.828644 
	C410.271332,172.977448 407.831024,171.872086 405.410980,170.752029 
	C403.292175,169.771408 401.155365,168.784576 399.560394,167.014816 
	C396.910461,164.074493 395.901581,160.658768 397.267303,156.858124 
	C398.660278,152.981613 401.876892,151.339798 405.692627,150.714966 
	C410.028961,150.004913 414.264282,151.112045 418.720306,151.497894 
	C419.473694,154.750122 419.802399,157.899460 418.659668,161.021301 
	C416.469086,161.252457 416.222473,159.684174 415.827698,158.534882 
	C414.472717,154.590363 411.478241,153.857712 407.851532,154.235214 
	C405.897400,154.438614 404.267670,155.241852 403.621216,157.203903 
	C402.918732,159.336029 403.555664,161.305420 405.393585,162.487762 
	C407.900696,164.100555 410.617065,165.387161 413.238068,166.823975 
	C419.419281,170.212524 422.285980,175.316635 420.904480,180.458557 
	C419.410553,186.018906 414.540192,188.744461 407.101105,188.590622 
	C403.806122,188.522461 400.720490,186.275360 397.036652,188.510468 
	C396.400604,183.812012 396.275757,179.875046 397.122040,175.526108 
	C400.494781,177.017059 399.934753,180.702713 402.375244,182.640411 
z"/>
<path fill="#000000" opacity="1.000000" stroke="none" 
	d="
M127.250504,136.378662 
	C123.480568,135.798752 119.930237,138.066132 116.021027,135.198639 
	C124.377274,131.478073 121.717110,124.320541 121.537750,118.323540 
	C121.358894,112.343460 124.835251,105.006378 116.641495,100.615616 
	C122.544601,99.102394 128.219223,99.298988 135.095917,99.727966 
	C125.527779,108.499214 130.384216,118.760193 129.517868,128.071365 
	C129.295013,130.466522 131.173477,132.077988 133.536713,132.449982 
	C136.726990,132.952164 139.855759,132.864532 142.202728,130.033096 
	C143.230011,128.793762 143.283081,126.831558 145.407990,126.009430 
	C148.014801,128.719986 146.436859,131.901337 145.849533,134.614853 
	C145.323395,137.045685 142.576797,136.327225 140.679459,136.364883 
	C136.360794,136.450592 132.039062,136.381561 127.250504,136.378662 
z"/>
<path fill="#000000" opacity="1.000000" stroke="none" 
	d="
M87.967056,159.458557 
	C87.977783,165.719406 87.990906,171.535629 88.046265,177.351456 
	C88.076668,180.545502 88.778831,183.483582 92.441971,184.235519 
	C96.090950,184.984558 99.431068,184.445496 101.427971,180.727173 
	C102.039337,179.588791 102.333199,178.165741 104.279839,177.877151 
	C106.340576,180.436081 105.574760,183.482315 104.775665,186.114670 
	C103.922150,188.926331 100.970428,188.236603 98.725006,188.270706 
	C92.577332,188.364105 86.427704,188.387115 80.279465,188.345901 
	C78.714912,188.335419 76.934372,188.887497 75.250740,186.797256 
	C83.286644,183.011993 80.516327,175.744598 80.520386,169.539230 
	C80.524361,163.454620 83.266212,156.290222 75.204239,152.042511 
	C81.331833,150.467194 86.956787,150.665756 93.163940,151.472961 
	C91.555923,154.716431 87.424393,155.309311 87.967056,159.458557 
z"/>
<path fill="#000000" opacity="1.000000" stroke="none" 
	d="
M348.288025,134.709824 
	C348.959381,134.006622 350.181183,133.329285 350.215698,132.596130 
	C350.514587,126.239388 351.999329,119.755798 348.814697,113.629532 
	C353.796753,111.016785 354.298828,111.147369 355.307343,116.423882 
	C355.794159,118.970825 357.187408,119.658073 359.470215,119.615402 
	C363.753418,119.535309 365.247589,122.076660 365.408417,125.952179 
	C365.542847,129.190933 364.779938,132.614685 367.562653,135.654144 
	C364.725433,137.008484 362.180847,136.101257 358.963593,136.455368 
	C360.627289,132.994080 361.174225,130.007156 360.771545,126.895271 
	C360.568573,125.326950 360.205994,123.723877 358.347107,123.649788 
	C356.280609,123.567429 355.528015,125.134140 355.396210,126.955643 
	C355.181152,129.927307 355.092926,132.899277 356.781097,135.904099 
	C353.712555,136.522171 351.017029,136.981750 348.182922,135.357056 
	C348.041077,135.029022 348.288025,134.709824 348.288025,134.709824 
z"/>
<path fill="#000000" opacity="1.000000" stroke="none" 
	d="
M378.860443,127.964172 
	C376.551544,128.453033 373.224731,127.092194 373.260437,130.150009 
	C373.297302,133.304428 376.324646,133.478348 378.981201,133.076813 
	C379.782776,132.955673 380.615875,132.709885 381.308533,133.402649 
	C379.383209,137.111984 374.497559,138.020828 370.674103,135.383713 
	C367.478943,133.179962 366.352417,128.021973 368.278351,124.183044 
	C370.289978,120.173332 373.713959,118.998199 377.843384,119.893875 
	C380.300934,120.426926 381.799866,122.260170 382.154144,124.787994 
	C382.447754,126.883041 381.239014,127.806969 378.860443,127.964172 
z"/>
<path fill="#000000" opacity="1.000000" stroke="none" 
	d="
M308.192505,120.320648 
	C314.027924,125.206039 313.534332,133.799911 307.571411,136.053818 
	C304.305603,137.288239 300.837585,137.311203 298.296570,134.563187 
	C295.640137,131.690353 294.978973,128.124496 296.439575,124.360756 
	C297.753387,120.975227 300.435089,119.627441 303.894653,119.664085 
	C305.204926,119.677956 306.512299,119.961967 308.192505,120.320648 
M300.540466,129.213257 
	C301.567322,131.823578 302.353027,135.509079 306.165558,132.466965 
	C308.385315,130.695724 307.970337,127.635384 307.061279,125.006119 
	C306.603973,123.683533 305.718079,122.462936 304.195709,122.716797 
	C301.319275,123.196457 301.019318,125.719810 300.511444,127.987679 
	C300.475739,128.147202 300.491730,128.318298 300.540466,129.213257 
z"/>
<path fill="#000000" opacity="1.000000" stroke="none" 
	d="
M320.010742,136.383392 
	C317.535522,136.213196 315.338043,136.834656 313.111298,135.767395 
	C315.071228,131.355225 315.498169,127.026978 313.641693,122.392349 
	C312.255219,118.931213 317.247620,112.363953 321.260101,111.785423 
	C323.535858,111.457314 325.631927,111.819084 326.965698,113.930527 
	C327.532043,114.827049 327.561646,116.014656 326.718750,116.697380 
	C324.401611,118.574158 323.452942,115.162071 321.441772,115.077019 
	C318.077332,118.005333 321.405273,119.429375 322.966888,121.041382 
	C318.583405,125.533302 318.091888,129.113647 321.189514,134.363541 
	C321.970612,135.687347 321.617035,136.092056 320.010742,136.383392 
z"/>
<path fill="#000000" opacity="1.000000" stroke="none" 
	d="
M347.918030,135.188965 
	C341.343750,138.091476 338.830719,136.509003 338.665588,129.604095 
	C338.598969,126.817940 339.051453,123.946472 337.048615,121.472389 
	C338.630768,119.742828 340.057159,118.183525 341.541412,116.560989 
	C343.881500,117.487762 344.530518,120.181396 347.865875,120.729950 
	C344.752716,123.193352 343.315582,125.341972 343.171844,128.638336 
	C343.001373,132.548004 345.285217,133.313782 348.140869,134.450943 
	C348.288025,134.709824 348.041077,135.029022 347.918030,135.188965 
z"/>
</svg>